<?xml version="1.0" encoding="utf-8"?>
<!-- Generator: Adobe Illustrator 16.0.0, SVG Export Plug-In . SVG Version: 6.00 Build 0)  -->
<!DOCTYPE svg PUBLIC "-//W3C//DTD SVG 1.1//EN" "http://www.w3.org/Graphics/SVG/1.1/DTD/svg11.dtd">
<svg version="1.1" xmlns="http://www.w3.org/2000/svg" xmlns:xlink="http://www.w3.org/1999/xlink" x="0px" y="0px"
	 width="786.998px" height="164.098px" viewBox="0 0 786.998 164.098" enable-background="new 0 0 786.998 164.098"
	 xml:space="preserve">
<g id="Layer_11">
	<g>
		<g>
			<path fill="#EFEFEF" d="M289.145,0c31.793,0,59.358,18.094,72.964,44.546c-5.304,13.879-17.49,36.555-21.978,44.758
				c-22.057-55.682-54.45-53.914-54.45-53.914l3.464,17.831c9.892-1.777,19.099,25.61,19.099,25.61
				c12.316,37.413,16.964,36.576,16.964,36.576s15.805,4.705,20.635,4.362c0,0,8.751,0.483,21.606-23.193
				c0,0,1.437-2.672,3.295-6.458c-4.076,41.476-39.052,73.882-81.6,73.882c-45.288,0-82-36.713-82-82
				C207.144,36.713,243.857,0,289.145,0z"/>
			<path fill="#3CD8D5" d="M371.123,83.669c-19.621,36.369-24.577,24.645-24.577,24.645c-2-6.984-4.154-13.299-6.416-19.01
				c4.488-8.203,16.674-30.879,21.978-44.758c5.775,11.228,9.036,23.96,9.036,37.455C371.144,82.558,371.134,83.114,371.123,83.669z
				"/>
			<path fill="#3BC4BD" d="M346.546,108.314c-2-6.984-4.154-13.299-6.416-19.01c-22.057-55.682-54.45-53.914-54.45-53.914
				l3.464,17.831c9.892-1.777,19.099,25.61,19.099,25.61c12.316,37.413,16.964,36.576,16.964,36.576s15.805,4.705,20.635,4.362
				c0,0,8.751,0.483,21.606-23.193c0,0,1.437-2.672,3.295-6.458c0.187-1.889,0.308-3.796,0.363-5.721
				c0.007-0.242,0.012-0.485,0.016-0.728C351.502,120.039,346.546,108.314,346.546,108.314z"/>
		</g>
		<path opacity="0.6" fill="#999999" d="M293.958,49.651c2.707-2.514-14.605,16.606-20.696,6.76
			c-4.899-7.918,10.224-11.683,10.224-11.683s9.801,0.377,9.876,0.603C293.436,45.556,293.958,49.651,293.958,49.651z"/>
		<g>
			<path fill="none" stroke="#B7B6B6" stroke-width="4.2775" stroke-miterlimit="10" d="M279.127,68.51
				c5.085-1.439,8.812-6.116,8.812-11.663c0-6.694-5.426-12.12-12.119-12.12"/>
			<rect x="263.552" y="64.151" fill="#999999" width="22" height="15"/>
			<circle fill="#5B5B5B" cx="276.147" cy="69.036" r="2.367"/>
			<path fill="none" stroke="#999999" stroke-width="4.2775" stroke-linecap="round" stroke-miterlimit="10" d="M273.857,45.024
				c-5.406,1.218-9.444,6.049-9.444,11.823c0,5.602,3.801,10.316,8.965,11.705"/>
			<circle opacity="0.6" fill="#999999" cx="276.74" cy="44.781" r="2.508"/>
			<path fill="none" stroke="#CCCCCC" stroke-width="4.2775" stroke-linecap="round" stroke-miterlimit="10" d="M275.82,44.728
				c-6.693,0-12.119,5.426-12.119,12.12c0,6.693,5.426,12.12,12.119,12.12"/>
			<path id="Glare_1_" fill="none" stroke="#FFFFFF" stroke-width="1.6635" stroke-linecap="round" stroke-miterlimit="10" d="
				M271.148,45.661c-3.647,1.525-6.391,4.783-7.202,8.745"/>
			<rect x="267.552" y="79.151" fill="#999999" width="6" height="42"/>
			<rect x="269.552" y="114.151" fill="#999999" width="18" height="7"/>
			<rect x="269.552" y="107.151" fill="#999999" width="18" height="4"/>
		</g>
		<path fill="#3BC4BD" d="M289.873,52.148c0,0-7.362,6.99-14.62,5.888c0,0-9.225-3.734-3.106-12.798
			c2.013-2.982,6.28-9.854,12.193-10.39c0,0,9.365,0.138,19.961,6.42"/>
	</g>
	<g>
		<g>
			<path fill="#EFEFEF" d="M496.788,0c31.792,0,59.357,18.094,72.964,44.546c-5.304,13.879-17.489,36.555-21.978,44.758
				c-22.058-55.682-54.45-53.914-54.45-53.914l3.464,17.831c9.891-1.777,19.099,25.61,19.099,25.61
				c12.315,37.413,16.965,36.576,16.965,36.576s15.803,4.705,20.634,4.362c0,0,8.751,0.483,21.606-23.193
				c0,0,1.437-2.672,3.296-6.458C574.312,131.594,539.335,164,496.788,164c-45.288,0-82.001-36.713-82.001-82
				C414.787,36.713,451.5,0,496.788,0z"/>
			<path fill="#3CD8D5" d="M578.767,83.669c-19.622,36.369-24.578,24.645-24.578,24.645c-1.998-6.984-4.153-13.298-6.415-19.01
				c4.489-8.203,16.674-30.879,21.978-44.758c5.774,11.228,9.035,23.96,9.035,37.455C578.787,82.558,578.777,83.114,578.767,83.669z
				"/>
			<path fill="#3BC4BD" d="M554.189,108.314c-1.998-6.984-4.153-13.298-6.415-19.01c-22.058-55.682-54.45-53.914-54.45-53.914
				l3.464,17.831c9.891-1.777,19.099,25.61,19.099,25.61c12.315,37.413,16.965,36.576,16.965,36.576s15.803,4.705,20.634,4.362
				c0,0,8.751,0.483,21.606-23.193c0,0,1.437-2.672,3.296-6.458c0.186-1.889,0.307-3.796,0.361-5.721
				c0.007-0.242,0.012-0.485,0.017-0.728C559.145,120.039,554.189,108.314,554.189,108.314z"/>
		</g>
		<g>
			
				<line fill="none" stroke="#666666" stroke-width="8" stroke-linecap="round" stroke-miterlimit="10" x1="488.552" y1="49.151" x2="488.552" y2="82.151"/>
			
				<line fill="none" stroke="#999999" stroke-width="7" stroke-linecap="round" stroke-miterlimit="10" x1="489.052" y1="49.151" x2="489.052" y2="83.151"/>
			<g>
				<polygon fill="#999999" stroke="#999999" stroke-miterlimit="10" points="467.575,119.445 465.382,120.399 466.101,119.221 
					483.234,85.651 495.281,85.651 512.6,119.221 513.354,120.452 511.094,119.411 510.492,119.77 510.167,119.461 508.328,120.14 
					507.567,119.501 505.036,120.194 504.141,119.528 502.06,121.291 500.797,120.075 499.98,121.062 499.078,118.651 
					498.77,118.651 498.348,119.651 497.458,119.651 495.825,121.083 494.637,119.429 493.45,119.793 492.29,118.651 
					491.726,118.651 489.74,120.827 489.276,118.651 489.081,118.651 488.554,119.614 487.38,118.651 486.916,118.651 
					486.33,119.615 485.157,118.651 484.779,118.651 484.095,121.064 483.052,119.537 483.052,120.889 481.181,119.537 
					480.052,121.297 480.052,118.651 479.805,118.651 478.793,119.617 478.017,118.651 478.052,118.651 478.052,121.701 
					476.755,120.281 476.052,121.024 476.052,119.672 474.58,120.247 473.343,119.537 472.323,121.468 471.102,118.651 
					470.85,118.651 470.343,120.015 469.052,119.537 469.052,120.078 				"/>
				<polyline fill="#CCCCCC" points="506.726,116.273 501.833,106.805 498.143,98.149 496.938,93.956 				"/>
				<polyline fill="#CCCCCC" points="496.938,115.462 497.691,108.158 494.83,94.498 				"/>
				<polyline fill="#CCCCCC" points="489.333,114.516 488.504,102.477 490.463,91.657 				"/>
				<polyline fill="#CCCCCC" points="483.686,116.273 483.083,103.568 485.793,93.956 				"/>
				<polyline fill="#CCCCCC" points="473.746,114.516 478.867,105.994 482.33,94.498 				"/>
			</g>
			<polygon fill="#CCCCCC" stroke="#CCCCCC" stroke-miterlimit="10" points="482.33,85.651 496.411,85.651 493.771,79.651 
				485.323,79.651 			"/>
			
				<line fill="none" stroke="#FFFFFF" stroke-width="1.0806" stroke-linecap="round" stroke-miterlimit="10" x1="486.227" y1="81.097" x2="484.334" y2="84.81"/>
		</g>
		<g>
			<path opacity="0.6" fill="#999999" d="M501.602,49.65c2.706-2.514-14.605,16.606-20.697,6.761
				c-4.9-7.918,10.224-11.683,10.224-11.683s9.801,0.376,9.876,0.603C501.08,45.556,501.602,49.65,501.602,49.65z"/>
			<path fill="#3BC4BD" d="M497.516,52.148c0,0-7.362,6.99-14.621,5.888c0,0-9.225-3.734-3.106-12.798
				c2.014-2.982,6.28-9.854,12.193-10.39c0,0,9.365,0.139,19.961,6.42"/>
		</g>
	</g>
	<g>
		<path fill="#3CD8D5" d="M12.481,51.138"/>
		<g>
			<path fill="#EFEFEF" d="M82,0C50.207,0,22.642,18.095,9.036,44.547c5.27,13.791,17.337,36.272,21.893,44.603
				c20.986-55.017,47.612-50.939,47.612-50.939l2.563,17.222C71.467,54.797,62.9,78.831,62.9,78.831
				c-12.315,37.413-16.965,36.577-16.965,36.577s-15.803,4.705-20.635,4.362c0,0-8.75,0.483-21.606-23.193
				c0,0-1.436-2.671-3.295-6.458C4.476,131.593,39.452,164,82,164c45.287,0,82-36.713,82-82S127.286,0,82,0z"/>
			<path fill="#3CD8D5" d="M0.021,83.669c19.621,36.37,24.577,24.645,24.577,24.645c2.025-7.077,4.147-13.44,6.331-19.165
				c-4.555-8.331-16.623-30.812-21.893-44.603C3.261,55.773,0,68.506,0,82C0,82.559,0.01,83.114,0.021,83.669z"/>
			<path fill="#3BC4BD" d="M78.541,38.211c0,0-26.626-4.078-47.612,50.939c-2.183,5.724-4.306,12.088-6.331,19.165
				c0,0-4.956,11.725-24.577-24.645c0.004,0.243,0.009,0.487,0.016,0.728c0.055,1.924,0.176,3.832,0.362,5.721
				c1.859,3.787,3.295,6.458,3.295,6.458c12.856,23.676,21.606,23.193,21.606,23.193c4.832,0.343,20.635-4.362,20.635-4.362
				s4.649,0.836,16.965-36.577c0,0,8.567-24.034,18.204-23.398L78.541,38.211z"/>
		</g>
		<path opacity="0.6" fill="#999999" d="M100.354,52.322"/>
		<path opacity="0.6" fill="#999999" d="M99.996,51.505c0,0,1.77,4.712-8.284,5.647c0,0-8.183-0.226-10.165-0.935
			c0,0-7.53-1.701-8.132-5.315c-0.603-3.614,2.729-6.445,2.66-6.334"/>
		<path fill="#3BC4BD" d="M81.104,55.433c0.205,0.053,0.422,0.039,0.635,0.078c0,0,15.078,2.729,18.484-2.542
			c0,0,3.437-9.6-21.683-14.757C78.541,38.211,63.643,50.926,81.104,55.433z"/>
		<g>
			<path fill="#999999" stroke="#999999" stroke-width="0.8565" stroke-miterlimit="10" d="M151.39,76.685
				c0,0-9.063-1.451-11.873-2.611c-2.811-1.16-5.269-6.091-8.22-8.048c-2.951-1.958-5.901-7.179-9.485-9.354
				c0,0-2.107-3.698-2.529-4.35c0,0-5.269,1.306-2.529,7.614c0,0,1.686,3.045,4.848,5.872c0,0-0.283,2.465-4.427,3.264
				c-4.479,0.863-11.241,3.189-11.591,4.132l0,0c0,0-10.326,4.278-20.444,9.716c0,0-1.61,4.568,6.534,2.03
				c7.835-2.441,13.278-5.221,13.278-5.221l0.142,1.74c0,0-17.636,6.525-21.429,9.136c0,0-3.161,7.613,21.076-4.568l1.889-0.725
				l0.512,1.298c0,0-18.419,7.476-19.051,8.127c-0.633,0.653,0.211,4.134,13.91-1.522l6.533-3.262l0.845,1.086
				c0,0-13.278,5.873-14.333,6.744c-1.054,0.871,0.632,4.351,16.651-2.174c0,0,14.12,0.217,21.918-5.656
				c0,0,10.118-1.522,15.386,0.435C149,90.388,153.856,86.038,151.39,76.685z"/>
			<path fill="none" stroke="#CCCCCC" stroke-width="0.8565" stroke-miterlimit="10" d="M118.5,74.936
				c0,0,3.992,11.998,14.843,8.501"/>
			<path fill="none" stroke="#CCCCCC" stroke-width="0.8565" stroke-miterlimit="10" d="M106.315,75.906
				c0,0-2.108,8.392,6.743,16.004"/>
		</g>
	</g>
	<g>
		<g>
			<path fill="#EFEFEF" d="M704.997,0.098c-31.792,0-59.357,18.094-72.963,44.546c5.303,13.878,17.489,36.554,21.978,44.757
				c22.058-55.682,54.45-53.914,54.45-53.914l-3.465,17.832c-9.892-1.778-19.098,25.609-19.098,25.609
				c-12.315,37.414-16.965,36.577-16.965,36.577s-15.805,4.704-20.635,4.361c0,0-8.752,0.484-21.606-23.192
				c0,0-1.437-2.672-3.296-6.459c4.076,41.477,39.053,73.883,81.6,73.883c45.287,0,82.001-36.713,82.001-82
				C786.998,36.81,750.284,0.098,704.997,0.098z"/>
			<path fill="#3CD8D5" d="M623.019,83.766c19.623,36.37,24.578,24.645,24.578,24.645c1.998-6.984,4.152-13.298,6.415-19.01
				c-4.488-8.203-16.675-30.879-21.978-44.757c-5.775,11.228-9.036,23.959-9.036,37.454
				C622.998,82.656,623.009,83.21,623.019,83.766z"/>
			<path fill="#3BC4BD" d="M654.012,89.401c-2.263,5.711-4.417,12.026-6.415,19.01c0,0-4.955,11.725-24.578-24.645
				c0.006,0.244,0.01,0.486,0.018,0.729c0.055,1.924,0.176,3.832,0.361,5.72c1.859,3.787,3.296,6.459,3.296,6.459
				c12.854,23.676,21.606,23.192,21.606,23.192c4.83,0.343,20.635-4.361,20.635-4.361s4.649,0.836,16.965-36.577
				c0,0,9.206-27.388,19.098-25.609l3.465-17.832C708.462,35.487,676.069,33.719,654.012,89.401z"/>
		</g>
		<polygon opacity="0.6" fill="#999999" points="694.945,50.27 696.091,58.591 698.388,56.31 700.185,49.606 700.258,49.026 		"/>
		<path fill="#EDEFEF" d="M719.683,46.699"/>
		<path fill="#EDEFEF" d="M719.552,46.717"/>
		<path fill="#B2B2B2" d="M721.343,119.058c0.603,0.149,6.726-3.069,7.185-3.636c0.458-0.566,0.649-2.203,0.649-2.203
			c0.447-2.282-2.635-31.928-2.635-31.928c-0.281-7.482-5.257-28.083-5.257-28.083c-0.706-6.376-1.603-6.508-1.603-6.508
			l-1.061,0.644l-2.457,42.813l2.752,26.546l1.02,1.496L721.343,119.058z"/>
		<path fill="#E8E8E8" d="M721.288,119.048c-1.264-1.198-2.408-43.129-2.408-43.129c-0.919-3.563,1.229-22.559,1.229-22.559
			c0.051-0.725-0.416-6.527-0.416-6.527l-0.141-0.116c-7.972,1.158-23.055,3.929-23.055,3.929c-0.169,0.46,0.676,4.39,0.604,6.381
			c-0.069,1.991-1.875,18.619-1.875,18.619c-1.247,5.215,1.595,40.384,2.129,40.988c0.273,0.31,7.072,1.266,13.069,1.787
			C715.918,118.898,720.632,118.952,721.288,119.048"/>
		<polygon fill="#B2B2B2" points="708.599,48.576 708.85,52.483 702.561,53.234 702.315,49.387 		"/>
		<polyline fill="#CCCCCC" points="715.336,53.12 708.939,54.726 699.522,55.229 		"/>
		<polyline fill="#CCCCCC" points="696.99,74.133 707.911,74.815 716.169,72.477 		"/>
		<polygon fill="#999999" points="720.744,66.778 722.878,73.887 725.595,80.438 725.192,74.137 720.747,53.326 720.321,49.375 
			720.36,53.663 719.436,65.366 		"/>
		<polygon fill="#999999" points="721.333,83.347 724.25,87.737 724.884,97.64 723.429,87.901 		"/>
		<polygon fill="#999999" points="721.771,118.553 726.062,114.755 728.646,114.181 728.29,114.802 726.21,116.312 		"/>
		
			<text transform="matrix(1.0942 -0.0274 0.03 0.9996 698.6748 93.2817)" fill="#666666" font-family="'MyriadPro-Regular'" font-size="4.8668">COFFEE</text>
		<path opacity="0.6" fill="#999999" d="M700.185,49.748c-2.706-2.515,14.605,16.605,20.696,6.76
			c4.899-7.918-10.224-11.683-10.224-11.683s-9.802,0.377-9.876,0.603C700.706,45.653,700.185,49.748,700.185,49.748z"/>
		<path fill="#3BC4BD" d="M704.271,52.246c0,0,7.361,6.989,14.619,5.888c0,0,9.225-3.734,3.106-12.799
			c-2.013-2.982-6.279-9.854-12.191-10.389c0,0-9.367,0.138-19.963,6.42"/>
	</g>
</g>
<g id="Layer_4">
</g>
</svg>
