<?xml version="1.0" encoding="utf-8"?>
<!-- Generator: Adobe Illustrator 16.0.0, SVG Export Plug-In . SVG Version: 6.00 Build 0)  -->
<!DOCTYPE svg PUBLIC "-//W3C//DTD SVG 1.1//EN" "http://www.w3.org/Graphics/SVG/1.1/DTD/svg11.dtd">
<svg version="1.1" id="Layer_1" xmlns="http://www.w3.org/2000/svg" xmlns:xlink="http://www.w3.org/1999/xlink" x="0px" y="0px"
	 width="13px" height="13px" viewBox="0 0 13 13" enable-background="new 0 0 13 13" xml:space="preserve">
<circle fill="#C6C6C6" cx="6.5" cy="6.5" r="6.5"/>
<g>
	<path fill="#FFFFFF" d="M5.214,10.337c0.027-0.234,0.064-0.522,0.111-0.864s0.101-0.729,0.161-1.16s0.127-0.9,0.199-1.406
		s0.147-1.04,0.226-1.603L4.997,5.005l0.105-0.475l2.191-0.299l0.305,0.141L6.813,9.833c-0.043,0.297,0.014,0.445,0.17,0.445
		c0.066,0,0.143-0.023,0.229-0.07s0.203-0.135,0.352-0.264l0.176,0.369c-0.031,0.043-0.091,0.111-0.179,0.205
		s-0.199,0.188-0.334,0.284s-0.293,0.18-0.475,0.252s-0.38,0.108-0.595,0.108c-0.328,0-0.575-0.07-0.741-0.211
		S5.183,10.607,5.214,10.337z M6.966,3.06c-0.113,0-0.22-0.023-0.319-0.07S6.46,2.88,6.386,2.802S6.253,2.634,6.21,2.533
		S6.147,2.326,6.151,2.216C6.155,2.08,6.185,1.952,6.239,1.833s0.127-0.224,0.217-0.313S6.65,1.358,6.77,1.305
		s0.247-0.079,0.384-0.079c0.133,0,0.254,0.022,0.363,0.067s0.201,0.105,0.275,0.182s0.13,0.162,0.167,0.258s0.054,0.196,0.05,0.302
		C8.005,2.171,7.979,2.302,7.93,2.427S7.812,2.662,7.722,2.755S7.523,2.923,7.396,2.978S7.126,3.06,6.966,3.06z"/>
</g>
</svg>
