<?xml version="1.0" encoding="utf-8"?>
<!-- Generator: Adobe Illustrator 16.0.0, SVG Export Plug-In . SVG Version: 6.00 Build 0)  -->
<!DOCTYPE svg PUBLIC "-//W3C//DTD SVG 1.1//EN" "http://www.w3.org/Graphics/SVG/1.1/DTD/svg11.dtd">
<svg version="1.1" id="Layer_1" xmlns="http://www.w3.org/2000/svg" xmlns:xlink="http://www.w3.org/1999/xlink" x="0px" y="0px"
	 width="150.333px" height="136.693px" viewBox="0 0 150.333 136.693" enable-background="new 0 0 150.333 136.693"
	 xml:space="preserve">
<g>
	<g>
		<g>
			<path fill="#32A09A" d="M43.53,81.993c0,0-2.674,8.053-4.702,9.695c0,0-4.606-12.688-11.396-18.287c0,0-9.444-8.919-19.124,1.25
				c0,0-2.107,3.453,5.776,2.632c0,0,2.811-0.299,4.762-0.522c0,0,1.638-0.598,5.074,6.866c0,0,5.746,14.854,6.346,16.497
				c0,0,0.892,3.733,6.952,4.629l9.024-1.943l5.62-14.854l-6.229-6.898l-2.669-1.386L43.53,81.993z"/>
			<path fill="#32A09A" d="M106.818,81.993c0,0,2.672,8.053,4.703,9.695c0,0,4.604-12.688,11.394-18.287
				c0,0,9.446-8.919,19.127,1.25c0,0,2.106,3.453-5.778,2.632c0,0-2.809-0.299-4.761-0.522c0,0-1.639-0.598-5.074,6.866
				c0,0-5.746,14.854-6.347,16.497c0,0-0.892,3.733-6.949,4.629l-9.026-1.943l-5.621-14.854l6.229-6.898l2.668-1.386L106.818,81.993
				z"/>
		</g>
		<g>
			<path fill="#13E2D7" d="M27.202,107.132c0,0,17.079,1.228,18.124-24.984c1.045-26.214,29.769,9.616,29.978,9.915
				c0.208,0.299-8.118,21.858-8.118,21.858l-1.713-0.077l-3.105-1.23l-2.882-1.739l-2.499-5.941c0,0,3.02-7.795,1.978-8.988
				c0,0-3.538,3.682-5.151,5.074c-1.614,1.396-12.488,11.847-21.751,8.76C22.8,106.694,27.202,107.132,27.202,107.132z"/>
			<path fill="#3CD8D5" d="M123.148,107.132c0,0-17.082,1.228-18.127-24.984c-1.044-26.214-29.768,9.616-29.977,9.915
				c-0.208,0.299,8.118,21.858,8.118,21.858l1.421,0.184l3.262-1.29l3.019-1.94l2.497-5.941c0,0-3.019-7.795-1.977-8.988
				c0,0,3.537,3.682,5.151,5.074c1.614,1.396,12.489,11.847,21.75,8.76C127.548,106.694,123.148,107.132,123.148,107.132z"/>
			<path fill="#3CD8D5" d="M57.102,92.689c-4.56-2.119-8.594-5.03-11.894-8.53c-1.818,24.132-18.006,22.973-18.006,22.973
				s-4.402-0.438,4.86,2.646c9.263,3.087,20.147-9.235,21.361-10.96C54.866,96.765,57.102,92.689,57.102,92.689"/>
		</g>
		<path fill="#3BC4BD" d="M75.333,95.745c-3,4.28-2.772,9.753-2.772,9.753c-3.435,11.544-7.579,12.143-7.579,12.143
			c-2.081,0.598-9.565,0-9.565,0s-2.024,0.797-10.87-14.432c0,0-6.269-10.152-10.432-8.46c0,0-6.36,2.588-8.337,0.598
			c0,0-2.4-3.882,8.111-8.461c0,0,13.734-5.174,30.074,25.68c0,0,4.174,5.223,9.924-16.299l1.446-3.01V95.745z"/>
		<path fill="#3BC4BD" d="M75.333,95.745c2,4.28,2.613,9.753,2.613,9.753c3.435,11.544,7.5,12.143,7.5,12.143
			c2.082,0.598,9.523,0,9.523,0s2.007,0.797,10.853-14.432c0,0,6.259-10.152,10.421-8.46c0,0,6.354,2.588,8.333,0.598
			c0,0,2.396-3.882-8.114-8.461c0,0-13.736-5.174-30.076,25.68c0,0-4.015,5.223-9.765-16.299l-1.287-3.01V95.745z"/>
	</g>
	<g>
		<path fill="#3BC4BD" d="M58.548,95.944c0,0-24.457,37.72-56.094,3.881c0,0-3.746-5.971,9.886-1.791c0,0,6.973,2.387,10.824,6.37
			c0,0,8.117,8.458,22.167,2.387C45.332,106.791,51.055,103.807,58.548,95.944z"/>
		<path fill="#3BC4BD" d="M91.8,95.944c0,0,24.455,37.72,56.093,3.881c0,0,3.747-5.971-9.886-1.791c0,0-6.974,2.387-10.822,6.37
			c0,0-8.119,8.458-22.169,2.387C105.016,106.791,99.292,103.807,91.8,95.944z"/>
	</g>
	<ellipse fill="#DDDCDB" cx="75.028" cy="131.922" rx="41.977" ry="2.835"/>
	<g id="Body_1_">
		<ellipse id="Body_5_" fill="#13E2D7" cx="75.199" cy="60.565" rx="39.026" ry="35.977"/>
		<path id="Shadow_1_" opacity="0.5" fill="#32A09A" d="M69.13,95.366c-13.207-6.034-22.342-19.008-22.342-34.042
			c0-17.886,12.931-32.859,30.267-36.695c-0.614-0.026-1.233-0.041-1.855-0.041c-21.554,0-39.026,16.108-39.026,35.977
			c0,17.636,13.768,32.308,31.936,35.381"/>
	</g>
	<g id="Eyes_2_">
		<path opacity="0.7" fill="none" stroke="#32A09A" stroke-width="1.5611" stroke-linecap="round" stroke-miterlimit="10" d="
			M49.39,55.823c0-2.645,2.585-4.789,5.776-4.789c3.189,0,5.775,2.145,5.775,4.789"/>
		<path opacity="0.7" fill="none" stroke="#32A09A" stroke-width="1.5611" stroke-linecap="round" stroke-miterlimit="10" d="
			M89.041,55.823c0-2.645,2.585-4.789,5.776-4.789c3.19,0,5.776,2.145,5.776,4.789"/>
		<path fill="none" stroke="#4E4F4F" stroke-width="0.8931" stroke-linecap="round" stroke-miterlimit="10" d="M49.39,54.887
			c0-2.644,2.585-4.789,5.776-4.789c3.189,0,5.775,2.145,5.775,4.789"/>
		<path fill="none" stroke="#4E4F4F" stroke-width="0.8931" stroke-linecap="round" stroke-miterlimit="10" d="M89.041,54.887
			c0-2.644,2.585-4.789,5.776-4.789c3.19,0,5.776,2.145,5.776,4.789"/>
	</g>
	<g id="Mustache_2_">
		<path fill="none" stroke="#333333" stroke-width="1.1166" stroke-linecap="round" stroke-miterlimit="10" d="M56.187,72.126
			c0,0-2.074,0.797-4.786-2.154c0,0-2.711-2.356-5.822,2.251c0,0-5.503,4.609-13.64-0.975c0,0-6.142-3.669,0-7.499
			c0,0,6.939-3.11,7.657,2.313c0,0,0.017,4.161-5.185,2.713"/>
		<path fill="none" stroke="#333333" stroke-width="1.1166" stroke-linecap="round" stroke-miterlimit="10" d="M94.149,72.126
			c0,0,2.073,0.797,4.785-2.154c0,0,2.712-2.356,5.822,2.251c0,0,5.506,4.609,13.641-0.975c0,0,6.142-3.669,0-7.499
			c0,0-6.939-3.11-7.659,2.313c0,0-0.015,4.161,5.186,2.713"/>
	</g>
	<g id="Tie_2_">
		<path fill="#333333" d="M74.84,89.429c-15.049-0.156-27.945-3.647-33.123-10.219c5.173,8.568,18.041,14.725,33.159,14.882
			c16.466,0.171,30.41-6.827,34.706-16.513C105.698,85.264,91.63,89.604,74.84,89.429z"/>
		<path fill="#333333" d="M80.333,92.217c0,1.326-1.822,2.477-2.816,2.477h-3.996c-0.995,0-3.188-1.151-3.188-2.477v-1.374
			c0-1.326,2.193-3.15,3.188-3.15h3.996c0.994,0,2.816,1.824,2.816,3.15V92.217z"/>
		<path fill="#333333" d="M75.967,91.359l12.746-8.27c0.701,0,1.621,0.593,1.621,1.445v13.557c0,0.848-0.92,1.54-1.621,1.54
			l-12.605-7.77"/>
		<path fill="#333333" d="M74.832,91.359l-12.311-8.27c-0.703,0-1.188,0.593-1.188,1.445v13.557c0,0.848,0.484,1.54,1.188,1.54
			l12.387-7.77"/>
	</g>
	<g id="Hat_2_">
		<polygon opacity="0.7" fill="#32A09A" points="100.097,34.245 75.333,25.796 75.333,24.022 103.572,29.947 		"/>
		<polygon fill="#333333" points="100.801,33.402 74.489,24.647 74.743,19.214 104.085,28.977 		"/>
		<polygon fill="#333333" points="96.523,26.772 83.004,22.275 86.931,0 106.725,6.586 		"/>
	</g>
</g>
</svg>
