<?xml version="1.0" encoding="utf-8"?>
<!-- Generator: Adobe Illustrator 16.0.0, SVG Export Plug-In . SVG Version: 6.00 Build 0)  -->
<!DOCTYPE svg PUBLIC "-//W3C//DTD SVG 1.1//EN" "http://www.w3.org/Graphics/SVG/1.1/DTD/svg11.dtd">
<svg version="1.1" xmlns="http://www.w3.org/2000/svg" xmlns:xlink="http://www.w3.org/1999/xlink" x="0em" y="0em"
	 width="256.185px" height="255.667px" viewBox="0 0 256.185 255.667" enable-background="new 0 0 256.185 255.667"
	 xml:space="preserve">
<g id="Layer_1">
</g>
<g id="face">
	<g id="Concierge_1_">
		<ellipse fill="#316865" cx="34.262" cy="31.4" rx="30.262" ry="31.069"/>
		<circle fill="#4A9C98" cx="36.159" cy="30.491" r="30.159"/>
		<g>
			<path fill="#316865" d="M36.15,53.018c-13.122,0-23.799-7.692-23.799-17.147c0-0.358,0.291-0.648,0.648-0.648
				s0.648,0.29,0.648,0.648c0,8.74,10.094,15.851,22.502,15.851c12.409,0,22.504-7.11,22.504-15.851
				c0-0.358,0.291-0.648,0.648-0.648s0.648,0.29,0.648,0.648C59.951,45.325,49.274,53.018,36.15,53.018z"/>
		</g>
		<g>
			<path fill="#316865" d="M28.334,20.535L28.334,20.535c-0.444,0-0.803-0.36-0.803-0.803c0.001-1.348-0.552-2.445-1.556-3.403
				C24.962,15.361,23.61,15,22.171,15c-0.001,0-0.001,0-0.001,0c-2.959,0-5.365,2.103-5.366,4.901c0,0.443-0.359,0.716-0.803,0.716
				l0,0c-0.443,0-0.803-0.427-0.803-0.87C15.199,16.063,18.326,13,22.169,13c0,0,0.001,0,0.002,0c1.854,0,3.6,0.716,4.913,1.97
				c1.325,1.264,2.054,2.958,2.053,4.75C29.137,20.164,28.777,20.535,28.334,20.535z"/>
		</g>
		<g>
			<path fill="#316865" d="M55.334,20.536L55.334,20.536c-0.444,0-0.803-0.36-0.803-0.803c0.001-1.349-0.552-2.447-1.556-3.404
				C51.962,15.361,50.61,15,49.171,15c-0.001,0-0.001,0-0.001,0c-2.959,0-5.365,2.104-5.366,4.901c0,0.443-0.359,0.717-0.803,0.717
				l0,0c-0.443,0-0.803-0.427-0.803-0.871C42.199,16.064,45.326,13,49.169,13c0,0,0.001,0,0.002,0c1.854,0,3.6,0.717,4.913,1.97
				c1.325,1.264,2.054,2.959,2.053,4.751C56.137,20.165,55.777,20.536,55.334,20.536z"/>
		</g>
		<g>
			<path fill="#2A5653" d="M55,54.542c0-0.848-0.519-1.265-1.296-0.927l-10.968,4.8c-0.778,0.338-1.385,0.437-1.385,0.1
				S40.686,58,39.838,58h-6.441c-0.848,0-1.542,0.178-1.542,0.515s-0.636,0.287-1.414-0.051L19.414,53.64
				C18.636,53.301,18,53.694,18,54.542v14.765c0,0.848,0.633,1.257,1.406,0.908l11.043-4.978c0.773-0.349,1.406-0.332,1.406,0.064
				S32.548,66,33.396,66h6.441c0.848,0,1.542-0.303,1.542-0.699s0.633-0.424,1.406-0.076l10.926,4.984
				C54.485,70.558,55,70.155,55,69.307V54.542z"/>
		</g>
		<g>
			<path fill="#316865" d="M55,53.542c0-0.848-0.519-1.265-1.296-0.927l-10.968,4.8c-0.778,0.338-1.385,0.437-1.385,0.1
				S40.686,57,39.838,57h-6.441c-0.848,0-1.542,0.178-1.542,0.515s-0.636,0.287-1.414-0.051L19.414,52.64
				C18.636,52.301,18,52.694,18,53.542v14.765c0,0.848,0.633,1.257,1.406,0.908l11.043-4.978c0.773-0.349,1.406-0.332,1.406,0.064
				S32.548,65,33.396,65h6.441c0.848,0,1.542-0.303,1.542-0.699s0.633-0.424,1.406-0.076l10.926,4.984
				C54.485,69.558,55,69.155,55,68.307V53.542z"/>
		</g>
	</g>
</g>
<g id="iPad">
	<g id="iPad_2_">
		<g>
			<path fill="#316865" d="M151,67c0,1.657-1.343,3-3,3h-48c-1.657,0-3-1.343-3-3V3c0-1.657,1.343-3,3-3h48c1.657,0,3,1.343,3,3V67z
				"/>
		</g>
		<g>
			<path fill="#2A5653" d="M145,59.578c0,1.337-1.084,2.422-2.422,2.422h-39.156c-1.337,0-2.422-1.084-2.422-2.422V8.422
				C101,7.084,102.084,6,103.422,6h39.156C143.916,6,145,7.084,145,8.422V59.578z"/>
		</g>
		<g>
			<path fill="#2C938E" d="M145,59.613c0,1.318-1.068,2.387-2.387,2.387h-38.227c-1.318,0-2.387-1.068-2.387-2.387V8.387
				C102,7.068,103.068,6,104.387,6h38.227C143.932,6,145,7.068,145,8.387V59.613z"/>
		</g>
		<circle fill="#4A9C98" cx="124.5" cy="65.303" r="2.199"/>
	</g>
</g>
<g id="towel">
	<g id="Towel_2_">
		<path fill="#4A9C98" d="M203.636,49.138c-2.058-0.271-7.651,0.099-7.651,0.099c-0.589-47.086,5.297-48.025,5.297-48.025
			c3.825-2.706,37.963,0.057,37.963,0.057c12.653-2.354,10.595,69.157,8.24,67.98c-2.354-1.178-43.26,0-43.26,0
			s-0.021-12.309,0.441-26.191c0.538-16.158,1.457-34.402-0.441-37.092"/>
		<text transform="matrix(1 0 0 1 221.4883 51.5117)" fill="#316865" font-family="'Habibi-Regular'" font-size="16">H</text>
		<path fill="#316865" d="M204.378,54.249c0,0,43.913,0.333,44.768,0l-0.092,2.669c0,0-43.85,0.586-44.723,0
			C204.331,56.918,204.371,54.662,204.378,54.249z"/>
	</g>
</g>
<g id="Grid" display="none">
	<g display="inline">
		<rect x="27.5" y="30.5" fill="none" stroke="#000000" stroke-miterlimit="10" width="281" height="280"/>
		<line fill="none" stroke="#000000" stroke-miterlimit="10" x1="28" y1="217.5" x2="309" y2="217.5"/>
		<line fill="none" stroke="#000000" stroke-miterlimit="10" x1="28" y1="124.5" x2="309" y2="124.5"/>
		<line fill="none" stroke="#000000" stroke-miterlimit="10" x1="214.5" y1="30" x2="214.5" y2="310"/>
		<line fill="none" stroke="#000000" stroke-miterlimit="10" x1="121.5" y1="30" x2="121.5" y2="310"/>
	</g>
</g>
<g id="package">
	<g id="Welcome_1_">
		<g>
			<path fill="#2C938E" d="M69,160.725c0,1.257-1.019,2.275-2.275,2.275H4.275C3.019,163,2,161.981,2,160.725v-41.449
				C2,118.019,3.019,117,4.275,117h62.449c1.257,0,2.275,1.019,2.275,2.275V160.725z"/>
		</g>
		<rect x="27" y="117" fill="#2A5653" width="16" height="46"/>
		<path fill="#316865" d="M63.146,100.493c-4.879-3.309-7.182-5.026-7.182-5.026c-8.581-4.764-13.28,7.566-15.109,14.111
			c-1.254-1.438-2.969-2.327-4.861-2.327c-2.098,0-3.973,1.092-5.249,2.812c-1.726-6.393-6.44-19.482-15.241-14.596
			c0,0-2.303,1.717-7.182,5.026c0,0-9.261,17.094,20.228,15.695l0.495-0.473c0.014,0.438,0.051,0.868,0.121,1.286H29v46h14v-46
			h-0.179c0.045-0.267,0.078-0.537,0.101-0.812C72.406,117.585,63.146,100.493,63.146,100.493z M19.233,97.927
			c3.765-2.638,10.485,12.897,10.485,12.897C13.469,97.634,19.233,97.927,19.233,97.927z M41.75,110.824L41.75,110.824
			c0.003-0.008,6.722-15.535,10.485-12.897C52.235,97.927,58,97.634,41.75,110.824z"/>
	</g>
</g>
<g id="book">
	<g id="Guide_Book_2_">
		<g>
			<path fill="#316865" d="M151.062,154.79c-0.034,1.1-0.961,2.21-2.062,2.21h-45c-1.1,0-2.034-1.11-2.075-2.209l-1.85-49.353
				c-0.042-1.099,0.818-2.158,1.911-2.29l48.862-5.883c1.092-0.131,1.958,0.753,1.924,1.853L151.062,154.79z"/>
		</g>
		<g>
			<path fill="#2A5653" d="M154.903,159.791C154.957,160.89,154.1,162,153,162h-51c-1.1,0-1.969-1.111-1.931-2.21l1.861-53.778
				c0.038-1.1,0.966-2.13,2.062-2.225l46.015-4.011c1.096-0.095,2.036,0.819,2.089,1.918L154.903,159.791z"/>
		</g>
		<g>
			<path fill="#2A5653" d="M153.518,159.881c-0.009,1.074-0.895,2.119-1.969,2.119h-47.597c-1.074,0-1.921-1.045-1.882-2.118
				l1.858-51.144c0.039-1.073,0.945-2.083,2.013-2.192l46.115-4.749c1.068-0.109,1.935,0.752,1.926,1.826L153.518,159.881z"/>
		</g>
		<g>
			<path fill="#4A9C98" d="M156,160.556c0,1.111-0.743,2.444-1.854,2.444h-52.125c-1.111,0-2.021-1.333-2.021-2.444v-53.202
				c0-1.111,0.909-2.053,2.02-2.093l52.043-1.856c1.111-0.04,1.937,0.838,1.937,1.949V160.556z"/>
		</g>
		<g>
			<path fill="#2A5653" d="M107.884,114.202l-0.747-0.242v-0.603l1.958-0.221l0.252,0.087v2.812c0.172-0.12,0.381-0.226,0.626-0.317
				c0.246-0.091,0.535-0.136,0.868-0.136c0.306,0,0.604,0.051,0.894,0.152c0.29,0.102,0.548,0.264,0.772,0.487
				c0.226,0.223,0.406,0.513,0.544,0.871c0.138,0.357,0.206,0.793,0.206,1.308c0,0.43-0.074,0.841-0.222,1.234
				s-0.357,0.74-0.628,1.041c-0.271,0.301-0.599,0.54-0.981,0.719c-0.383,0.178-0.809,0.268-1.275,0.268
				c-0.258,0-0.514-0.015-0.77-0.043c-0.256-0.029-0.488-0.065-0.695-0.108c-0.208-0.043-0.384-0.088-0.528-0.136
				c-0.145-0.048-0.235-0.091-0.273-0.129V114.202z M109.347,120.579c0.049,0.11,0.154,0.208,0.317,0.293
				c0.163,0.086,0.378,0.129,0.646,0.129c0.179,0,0.354-0.041,0.527-0.121c0.174-0.081,0.329-0.214,0.467-0.402
				c0.137-0.187,0.25-0.435,0.337-0.744c0.088-0.309,0.137-0.69,0.147-1.144c0.01-0.385-0.029-0.715-0.119-0.992
				c-0.089-0.276-0.207-0.503-0.353-0.68c-0.146-0.177-0.312-0.306-0.497-0.389s-0.371-0.124-0.557-0.124
				c-0.216,0-0.399,0.025-0.551,0.075s-0.273,0.099-0.366,0.146V120.579z"/>
			<path fill="#2A5653" d="M114.147,118.581c0.007-0.498,0.094-0.934,0.261-1.309c0.166-0.374,0.386-0.685,0.659-0.932
				c0.272-0.248,0.587-0.434,0.942-0.559s0.726-0.191,1.11-0.198c0.449-0.003,0.848,0.062,1.195,0.196
				c0.347,0.134,0.639,0.329,0.875,0.584c0.237,0.256,0.417,0.565,0.538,0.927c0.122,0.362,0.184,0.77,0.184,1.224
				c-0.004,0.504-0.084,0.951-0.242,1.339c-0.158,0.388-0.371,0.714-0.639,0.979c-0.269,0.265-0.579,0.465-0.933,0.603
				s-0.727,0.206-1.118,0.206c-0.515,0-0.953-0.082-1.315-0.245s-0.657-0.385-0.884-0.667s-0.391-0.607-0.492-0.976
				S114.141,118.993,114.147,118.581z M117.032,120.965c0.261,0.003,0.478-0.058,0.649-0.186c0.172-0.127,0.307-0.298,0.406-0.515
				c0.1-0.216,0.17-0.469,0.209-0.76c0.039-0.29,0.06-0.598,0.06-0.924c0-0.289-0.021-0.572-0.062-0.85
				c-0.041-0.278-0.11-0.527-0.208-0.747s-0.23-0.397-0.396-0.533c-0.167-0.135-0.374-0.205-0.621-0.208
				c-0.265-0.003-0.483,0.055-0.657,0.175c-0.173,0.12-0.312,0.282-0.419,0.487c-0.106,0.204-0.182,0.442-0.225,0.713
				s-0.064,0.558-0.064,0.86c0,0.178,0.01,0.364,0.028,0.556s0.051,0.38,0.096,0.564c0.044,0.184,0.101,0.358,0.17,0.523
				c0.068,0.165,0.151,0.31,0.25,0.435c0.098,0.125,0.212,0.225,0.342,0.299C116.72,120.929,116.867,120.965,117.032,120.965z"/>
			<path fill="#2A5653" d="M120.933,120.929l0.669-0.118v-3.74l-0.716-0.454v-0.505l1.674-0.5l0.319,0.103v0.747
				c0.128-0.117,0.274-0.227,0.44-0.33c0.167-0.103,0.344-0.192,0.531-0.268c0.187-0.076,0.379-0.136,0.574-0.18
				c0.195-0.045,0.388-0.069,0.577-0.072c0.322-0.003,0.593,0.044,0.812,0.142c0.218,0.098,0.393,0.246,0.525,0.443
				c0.132,0.198,0.226,0.445,0.28,0.742c0.055,0.297,0.082,0.643,0.082,1.038v2.828l0.768,0.124v0.587h-2.982v-0.587l0.752-0.134
				v-2.606c0-0.292-0.014-0.539-0.041-0.742s-0.081-0.367-0.162-0.492c-0.081-0.125-0.193-0.214-0.337-0.268
				c-0.145-0.053-0.335-0.078-0.572-0.075c-0.065,0.003-0.142,0.013-0.229,0.028c-0.087,0.015-0.18,0.039-0.275,0.069
				s-0.192,0.069-0.288,0.113c-0.097,0.045-0.186,0.096-0.269,0.155v3.822l0.69,0.128v0.587h-2.822V120.929z"/>
			<path fill="#2A5653" d="M128.911,117.159l-0.634-0.598v-0.386l1.746-0.562l0.34,0.124v5.955c0,0.402-0.045,0.76-0.134,1.077
				c-0.089,0.316-0.217,0.583-0.381,0.803c-0.165,0.22-0.366,0.387-0.603,0.502c-0.237,0.115-0.504,0.172-0.799,0.172
				c-0.082,0-0.17-0.005-0.263-0.015s-0.181-0.022-0.263-0.036c-0.083-0.014-0.154-0.029-0.214-0.046s-0.097-0.031-0.11-0.042
				v-0.855c0.03,0.01,0.072,0.019,0.126,0.026c0.053,0.007,0.109,0.013,0.17,0.018c0.06,0.005,0.118,0.008,0.175,0.01
				c0.057,0.001,0.101,0.002,0.132,0.002c0.144,0,0.263-0.033,0.355-0.1c0.093-0.067,0.165-0.172,0.219-0.314
				c0.053-0.143,0.089-0.325,0.108-0.549c0.019-0.223,0.028-0.493,0.028-0.809V117.159z M129.395,114.516
				c-0.113,0-0.223-0.019-0.329-0.057s-0.2-0.092-0.281-0.162c-0.08-0.07-0.146-0.156-0.195-0.258
				c-0.05-0.101-0.074-0.217-0.074-0.348c0-0.137,0.03-0.266,0.092-0.386c0.062-0.12,0.143-0.224,0.242-0.312
				c0.1-0.088,0.212-0.156,0.338-0.206c0.125-0.05,0.25-0.075,0.373-0.075c0.155,0,0.288,0.022,0.399,0.067
				c0.111,0.044,0.203,0.104,0.275,0.178s0.126,0.161,0.16,0.263c0.034,0.101,0.052,0.208,0.052,0.322
				c0,0.148-0.03,0.282-0.091,0.402c-0.06,0.12-0.139,0.222-0.236,0.307c-0.099,0.084-0.21,0.149-0.335,0.196
				C129.658,114.493,129.529,114.516,129.395,114.516z"/>
			<path fill="#2A5653" d="M131.636,118.581c0.007-0.498,0.094-0.934,0.261-1.309c0.166-0.374,0.386-0.685,0.659-0.932
				c0.272-0.248,0.587-0.434,0.942-0.559s0.726-0.191,1.11-0.198c0.449-0.003,0.848,0.062,1.195,0.196
				c0.347,0.134,0.639,0.329,0.875,0.584c0.237,0.256,0.417,0.565,0.538,0.927c0.122,0.362,0.184,0.77,0.184,1.224
				c-0.004,0.504-0.084,0.951-0.242,1.339c-0.158,0.388-0.371,0.714-0.639,0.979c-0.269,0.265-0.579,0.465-0.933,0.603
				s-0.727,0.206-1.118,0.206c-0.515,0-0.953-0.082-1.315-0.245s-0.657-0.385-0.884-0.667s-0.391-0.607-0.492-0.976
				S131.629,118.993,131.636,118.581z M134.521,120.965c0.261,0.003,0.478-0.058,0.649-0.186c0.172-0.127,0.307-0.298,0.406-0.515
				c0.1-0.216,0.17-0.469,0.209-0.76c0.039-0.29,0.06-0.598,0.06-0.924c0-0.289-0.021-0.572-0.062-0.85
				c-0.041-0.278-0.11-0.527-0.208-0.747s-0.23-0.397-0.396-0.533c-0.167-0.135-0.374-0.205-0.621-0.208
				c-0.265-0.003-0.483,0.055-0.657,0.175c-0.173,0.12-0.312,0.282-0.419,0.487c-0.106,0.204-0.182,0.442-0.225,0.713
				s-0.064,0.558-0.064,0.86c0,0.178,0.01,0.364,0.028,0.556s0.051,0.38,0.096,0.564c0.044,0.184,0.101,0.358,0.17,0.523
				c0.068,0.165,0.151,0.31,0.25,0.435c0.098,0.125,0.212,0.225,0.342,0.299C134.208,120.929,134.355,120.965,134.521,120.965z"/>
			<path fill="#2A5653" d="M138.734,116.803l-0.505-0.273v-0.525l1.69-0.392l0.231,0.093v3.57c0,0.254,0.013,0.475,0.039,0.662
				c0.025,0.187,0.072,0.342,0.142,0.466c0.068,0.124,0.163,0.216,0.283,0.276s0.274,0.09,0.463,0.09
				c0.117,0,0.234-0.013,0.351-0.039c0.117-0.026,0.226-0.058,0.327-0.098s0.192-0.083,0.273-0.131
				c0.08-0.048,0.143-0.095,0.188-0.139v-3.493l-0.648-0.278v-0.587l1.859-0.392l0.222,0.087v5.229h0.603v0.484
				c-0.056,0.034-0.129,0.068-0.222,0.101c-0.093,0.032-0.196,0.061-0.31,0.085s-0.231,0.043-0.355,0.057
				c-0.123,0.014-0.241,0.021-0.355,0.021c-0.188,0-0.344-0.041-0.466-0.121s-0.183-0.212-0.183-0.394v-0.293
				c-0.12,0.124-0.255,0.233-0.404,0.33s-0.304,0.178-0.464,0.245c-0.159,0.067-0.318,0.118-0.477,0.152s-0.306,0.052-0.443,0.052
				c-0.377,0-0.686-0.051-0.924-0.152c-0.239-0.102-0.426-0.25-0.562-0.446s-0.229-0.436-0.278-0.721s-0.075-0.611-0.075-0.979
				V116.803z"/>
			<path fill="#2A5653" d="M145.071,120.929l0.721-0.124v-3.734l-0.716-0.454v-0.505l1.674-0.5l0.314,0.098v0.917
				c0.052-0.141,0.141-0.273,0.268-0.396s0.269-0.231,0.423-0.322c0.154-0.091,0.313-0.163,0.477-0.216s0.31-0.08,0.44-0.08
				c0.116,0,0.224,0.004,0.321,0.013c0.099,0.009,0.168,0.021,0.209,0.039v1.38c-0.1-0.065-0.231-0.118-0.395-0.157
				s-0.33-0.059-0.502-0.059c-0.145,0-0.271,0.008-0.381,0.026c-0.11,0.017-0.208,0.039-0.294,0.067
				c-0.086,0.027-0.159,0.057-0.219,0.087c-0.061,0.031-0.11,0.06-0.152,0.087v3.678l1.313,0.154v0.587h-3.502V120.929z"/>
		</g>
	</g>
</g>
<g id="tool">
	<g id="Maintenance_1_">
		<g>
			
				<rect x="188.307" y="127.831" transform="matrix(0.7071 -0.7071 0.7071 0.7071 -31.8976 193.2489)" fill="#2A5653" width="58.017" height="14.592"/>
			
				<ellipse transform="matrix(0.7071 -0.7071 0.7071 0.7071 -51.9818 184.9238)" fill="#2A5653" cx="197.232" cy="155.209" rx="7.376" ry="7.296"/>
			
				<rect x="192.741" y="132.325" transform="matrix(0.7071 -0.7071 0.7071 0.7071 -33.2656 192.6797)" fill="#2A5653" width="46.413" height="8.338"/>
			
				<ellipse transform="matrix(0.707 -0.7072 0.7072 0.707 -49.7121 185.8853)" fill="#2A5653" cx="199.499" cy="152.943" rx="3.867" ry="4.168"/>
			<path fill="#2A5653" d="M248.233,116.002l-10.573-1.957l-1.956-10.573l7.508-7.507c-4.133-0.369-8.412,1.041-11.596,4.225
				c-5.667,5.666-5.717,14.805-0.109,20.412c5.604,5.604,14.745,5.555,20.411-0.11c3.365-3.366,4.733-7.955,4.127-12.302
				L248.233,116.002z"/>
		</g>
		<path fill="#316865" d="M241.987,117.773l-10.319-10.318l-40.576,40.578c-0.006,0.006-0.014,0.012-0.02,0.018
			s-0.012,0.014-0.019,0.02l-0.409,0.41l0.021,0.021c-2.462,2.896-2.354,7.218,0.352,9.924s7.029,2.815,9.924,0.352l0.022,0.022
			L241.987,117.773z"/>
		<path fill="#2C938E" d="M234.305,121.032l-5.896-5.896l-32.819,32.819l0.004,0.004c-0.013,0.013-0.029,0.021-0.042,0.034
			c-1.512,1.512-1.416,4.056,0.213,5.684c1.627,1.628,4.171,1.725,5.682,0.213c0.014-0.014,0.022-0.03,0.035-0.044l0.005,0.005
			L234.305,121.032z"/>
		<path fill="#316865" d="M247.233,114.002l-10.573-1.957l-1.956-10.573l7.508-7.507c-4.133-0.369-8.412,1.041-11.596,4.225
			c-5.667,5.666-5.717,14.805-0.109,20.412c5.604,5.604,14.745,5.555,20.411-0.11c3.365-3.366,4.733-7.955,4.127-12.302
			L247.233,114.002z"/>
	</g>
</g>
<g id="price">
	<g id="Pricing">
		<g>
			<rect y="187" fill="#316865" width="3" height="66"/>
		</g>
		<g>
			<rect x="2" y="250" fill="#316865" width="67" height="3"/>
		</g>
		<g>
			<line fill="#4A9C98" x1="6" y1="221" x2="14" y2="221"/>
			<rect x="6" y="220" fill="#4A9C98" width="8" height="2"/>
		</g>
		<g>
			<line fill="#4A9C98" x1="17" y1="221" x2="25" y2="221"/>
			<rect x="17" y="220" fill="#4A9C98" width="8" height="2"/>
		</g>
		<g>
			<line fill="#4A9C98" x1="36" y1="220" x2="36" y2="228"/>
			<rect x="35" y="220" fill="#4A9C98" width="2" height="8"/>
		</g>
		<g>
			<line fill="#4A9C98" x1="36" y1="230" x2="36" y2="238"/>
			<rect x="35" y="230" fill="#4A9C98" width="2" height="8"/>
		</g>
		<g>
			<line fill="#4A9C98" x1="36" y1="240" x2="36" y2="248"/>
			<rect x="35" y="240" fill="#4A9C98" width="2" height="8"/>
		</g>
		<g>
			<line fill="#4A9C98" x1="27" y1="221" x2="35" y2="221"/>
			<rect x="27" y="220" fill="#4A9C98" width="8" height="2"/>
		</g>
		<g>
			
				<rect x="4.209" y="218.5" transform="matrix(0.7071 0.7071 -0.7071 0.7071 165.9005 38.4807)" fill="#316865" width="64.581" height="2"/>
		</g>
		<g>
			
				<rect x="35.5" y="187.209" transform="matrix(0.7071 0.7071 -0.7071 0.7071 165.9005 38.4807)" fill="#316865" width="2" height="64.581"/>
		</g>
	</g>
</g>
<g id="groceries">
	<g id="Guest_Services_1_">
		<g>
			<polygon fill="#4A9C98" points="155,249 144.222,249 133,249 133,229 133,209.5 144,198.27 155,209.5 155,229 			"/>
			<path fill="#4A9C98" d="M156,249h-23v-39.704l11.5-11.741l11.5,11.741V249z M134,248h21v-38.296l-10.5-10.72l-10.5,10.72V248z"/>
		</g>
		<g>
			<g>
				<path fill="#4A9C98" d="M110.331,223.282c0,0-2.238-0.218-5.872,1.023c-3.635,1.24-9.028,6.068-4.352,16.082
					c0,0,4.271,8.73,6.521,9.015c2.25,0.286,5.047-1.555,6.406-1.114c0,0,2.202,0.008,4.127-0.523
					c1.926-0.53,5.549-6.574,5.086-17.659c0,0-0.02-8.012-8.757-7.644C113.49,222.462,111.664,223.258,110.331,223.282z"/>
				<path fill="#4A9C98" d="M107.127,249.933c-0.19,0-0.378-0.011-0.562-0.034c-2.396-0.303-6.173-7.793-6.906-9.291
					c-2.069-4.432-2.43-8.289-1.073-11.474c1.549-3.639,4.764-4.978,5.713-5.302c2.712-0.926,4.67-1.064,5.595-1.064
					c0.319,0,0.487,0.017,0.487,0.017c1.158-0.024,2.894-0.773,2.911-0.78l0.178-0.042c9.19-0.354,9.278,8.059,9.278,8.143
					c0.261,6.226-0.769,10.486-1.678,12.961c-1.045,2.843-2.491,4.827-3.775,5.182c-1.939,0.535-4.161,0.541-4.255,0.541
					l-0.159-0.024c-0.459-0.151-1.438,0.138-2.441,0.461C109.406,249.557,108.236,249.933,107.127,249.933z M109.893,223.768
					c-0.694,0-2.6,0.099-5.272,1.012c-0.849,0.289-3.729,1.488-5.115,4.746c-1.24,2.912-0.885,6.496,1.056,10.65
					c1.721,3.517,4.764,8.558,6.13,8.73c1.073,0.137,2.276-0.259,3.442-0.634c1.145-0.368,2.229-0.686,2.972-0.484
					c0.388-0.005,2.272-0.05,3.924-0.506c1.529-0.421,5.179-6.143,4.719-17.156c-0.002-0.316-0.129-7.452-8.146-7.168
					c-0.396,0.165-2.003,0.801-3.262,0.824C110.271,223.778,110.137,223.768,109.893,223.768z"/>
			</g>
			<g>
				<path fill="#4A9C98" d="M109.283,223.465c0,0-0.54-5.051,2.687-5.951"/>
				<path fill="#4A9C98" d="M109.28,224.963c-0.757,0-1.406-0.569-1.488-1.339c-0.251-2.345,0.262-6.575,3.774-7.555
					c0.793-0.226,1.625,0.242,1.848,1.041c0.223,0.798-0.243,1.625-1.041,1.848c-1.897,0.53-1.602,4.313-1.598,4.352
					c0.083,0.822-0.515,1.56-1.337,1.646C109.386,224.96,109.333,224.963,109.28,224.963z"/>
			</g>
		</g>
		<path fill="#316865" d="M161.5,209h-10.762c-0.115-0.198-0.254-0.38-0.428-0.527l-19.628-21.165
			c-0.015-2.502-2.052-4.533-4.558-4.533s-4.543,2.031-4.558,4.533l-19.783,21.332c-0.101,0.109-0.174,0.235-0.247,0.36H95.5
			c-0.828,0-1.5,0.672-1.5,1.5v40c0,0.828,0.672,1.5,1.5,1.5h6.5h3h34h3h19.5c0.828,0,1.5-0.672,1.5-1.5v-40
			C163,209.672,162.328,209,161.5,209z M160,227h-6v-15h6V227z M118,237v-7h9v7H118z M127,240v9h-9v-9H127z M105,230h10v7h-10V230z
			 M102,237h-5v-7h5V237z M127,212v15h-9v-15H127z M139,227h-9v-15h9V227z M130,230h9v7h-9V230z M142,230h9v7h-9V230z M154,230h6v7
			h-6V230z M149.019,212H151v15h-9v-15h6.999H149.019z M123.529,191.076c0.737,0.514,1.631,0.819,2.596,0.819
			s1.858-0.306,2.596-0.819L144.417,208h-36.584L123.529,191.076z M115,212v15h-10v-15H115z M102,212v15h-5v-15H102z M97,249v-9h5v9
			H97z M105,240h10v9h-10V240z M130,249v-9h9v9H130z M142,240h9v9h-9V240z M154,249v-9h6v9H154z"/>
		<g>
			<circle fill="#62D0CA" cx="126.125" cy="187.335" r="2.933"/>
		</g>
	</g>
</g>
<g id="Icons">
	<g id="Calculator_1_">
		<path fill="#316865" d="M248,251c0,1.657-1.344,3-3,3h-48c-1.656,0-3-1.343-3-3v-64c0-1.657,1.344-3,3-3h48c1.656,0,3,1.343,3,3
			V251z"/>
		<path fill="#2A5653" d="M245,247.073c0,0.512-0.415,0.927-0.927,0.927h-6.146c-0.512,0-0.927-0.415-0.927-0.927v-26.146
			c0-0.512,0.415-0.927,0.927-0.927h6.146c0.512,0,0.927,0.415,0.927,0.927V247.073z"/>
		<path fill="#4A9C98" d="M245,197.957c0,0.576-0.467,1.043-1.043,1.043h-45.914c-0.576,0-1.043-0.467-1.043-1.043v-9.914
			c0-0.576,0.467-1.043,1.043-1.043h45.914c0.576,0,1.043,0.467,1.043,1.043V197.957z"/>
		<path fill="#2A5653" d="M206,229c0,0.55-0.45,1-1,1h-7c-0.55,0-1-0.45-1-1v-8c0-0.55,0.45-1,1-1h7c0.55,0,1,0.45,1,1V229z"/>
		<path fill="#2A5653" d="M219,229c0,0.55-0.45,1-1,1h-7c-0.55,0-1-0.45-1-1v-8c0-0.55,0.45-1,1-1h7c0.55,0,1,0.45,1,1V229z"/>
		<path fill="#2A5653" d="M233,229c0,0.55-0.45,1-1,1h-7c-0.55,0-1-0.45-1-1v-8c0-0.55,0.45-1,1-1h7c0.55,0,1,0.45,1,1V229z"/>
		<path fill="#2A5653" d="M206,247c0,0.55-0.45,1-1,1h-7c-0.55,0-1-0.45-1-1v-9c0-0.55,0.45-1,1-1h7c0.55,0,1,0.45,1,1V247z"/>
		<path fill="#2A5653" d="M219,247c0,0.55-0.45,1-1,1h-7c-0.55,0-1-0.45-1-1v-9c0-0.55,0.45-1,1-1h7c0.55,0,1,0.45,1,1V247z"/>
		<path fill="#2A5653" d="M233,247c0,0.55-0.45,1-1,1h-7c-0.55,0-1-0.45-1-1v-9c0-0.55,0.45-1,1-1h7c0.55,0,1,0.45,1,1V247z"/>
		<path fill="#4A9C98" d="M245,246.073c0,0.512-0.415,0.927-0.927,0.927h-6.146c-0.512,0-0.927-0.415-0.927-0.927v-26.146
			c0-0.512,0.415-0.927,0.927-0.927h6.146c0.512,0,0.927,0.415,0.927,0.927V246.073z"/>
		<path fill="#4A9C98" d="M206,228c0,0.55-0.45,1-1,1h-7c-0.55,0-1-0.45-1-1v-8c0-0.55,0.45-1,1-1h7c0.55,0,1,0.45,1,1V228z"/>
		<path fill="#4A9C98" d="M219,228c0,0.55-0.45,1-1,1h-7c-0.55,0-1-0.45-1-1v-8c0-0.55,0.45-1,1-1h7c0.55,0,1,0.45,1,1V228z"/>
		<path fill="#4A9C98" d="M233,228c0,0.55-0.45,1-1,1h-7c-0.55,0-1-0.45-1-1v-8c0-0.55,0.45-1,1-1h7c0.55,0,1,0.45,1,1V228z"/>
		<path fill="#4A9C98" d="M206,246c0,0.55-0.45,1-1,1h-7c-0.55,0-1-0.45-1-1v-9c0-0.55,0.45-1,1-1h7c0.55,0,1,0.45,1,1V246z"/>
		<path fill="#4A9C98" d="M219,246c0,0.55-0.45,1-1,1h-7c-0.55,0-1-0.45-1-1v-9c0-0.55,0.45-1,1-1h7c0.55,0,1,0.45,1,1V246z"/>
		<path fill="#4A9C98" d="M233,246c0,0.55-0.45,1-1,1h-7c-0.55,0-1-0.45-1-1v-9c0-0.55,0.45-1,1-1h7c0.55,0,1,0.45,1,1V246z"/>
		<path fill="#2A5653" d="M206,213c0,0.55-0.45,1-1,1h-7c-0.55,0-1-0.45-1-1v-8c0-0.55,0.45-1,1-1h7c0.55,0,1,0.45,1,1V213z"/>
		<path fill="#2A5653" d="M219,213c0,0.55-0.45,1-1,1h-7c-0.55,0-1-0.45-1-1v-8c0-0.55,0.45-1,1-1h7c0.55,0,1,0.45,1,1V213z"/>
		<path fill="#2A5653" d="M233,213c0,0.55-0.45,1-1,1h-7c-0.55,0-1-0.45-1-1v-8c0-0.55,0.45-1,1-1h7c0.55,0,1,0.45,1,1V213z"/>
		<path fill="#2A5653" d="M245,213c0,0.55-0.45,1-1,1h-6c-0.55,0-1-0.45-1-1v-8c0-0.55,0.45-1,1-1h6c0.55,0,1,0.45,1,1V213z"/>
		<path fill="#4A9C98" d="M206,212c0,0.55-0.45,1-1,1h-7c-0.55,0-1-0.45-1-1v-8c0-0.55,0.45-1,1-1h7c0.55,0,1,0.45,1,1V212z"/>
		<path fill="#4A9C98" d="M219,212c0,0.55-0.45,1-1,1h-7c-0.55,0-1-0.45-1-1v-8c0-0.55,0.45-1,1-1h7c0.55,0,1,0.45,1,1V212z"/>
		<path fill="#4A9C98" d="M233,212c0,0.55-0.45,1-1,1h-7c-0.55,0-1-0.45-1-1v-8c0-0.55,0.45-1,1-1h7c0.55,0,1,0.45,1,1V212z"/>
		<path fill="#4A9C98" d="M245,212c0,0.55-0.45,1-1,1h-6c-0.55,0-1-0.45-1-1v-8c0-0.55,0.45-1,1-1h6c0.55,0,1,0.45,1,1V212z"/>
		<g>
			<path fill="#316865" d="M205.368,190.328h-3.324l-1.108-0.375v-0.625h4.433l0.555,0.5L205.368,190.328z M202.044,190.578v2.376
				l-0.831,0.75l-0.277-0.25v-3.251L202.044,190.578z M200.936,197.455v-3.251l0.277-0.25l0.831,0.75v2.376L200.936,197.455z
				 M205.909,197.831l-0.555,0.5h-4.419v-0.625l1.108-0.375h3.311L205.909,197.831z M205.646,192.954v-2.626l0.416-0.375
				l0.692,0.625v2.876l-0.277,0.25L205.646,192.954z M206.477,193.954l0.277,0.25v2.876l-0.692,0.625l-0.416-0.375v-2.626
				L206.477,193.954z"/>
			<path fill="#316865" d="M208.97,190.578v2.376l-0.831,0.75l-0.277-0.25v-3.251L208.97,190.578z M207.861,197.455v-3.251
				l0.277-0.25l0.831,0.75v2.376L207.861,197.455z M213.125,198.331h-4.57c-0.37-0.083-0.601-0.292-0.693-0.625l1.108-0.375h3.74
				L213.125,198.331z M212.71,190.328h-3.727l-1.107-0.375c0.092-0.333,0.322-0.542,0.692-0.625h4.557L212.71,190.328z
				 M212.571,193.329l0.554,0.5l-0.554,0.5h-3.602l-0.554-0.5l0.554-0.5H212.571z"/>
			<path fill="#316865" d="M219.22,190.328h-3.324l-1.108-0.375v-0.625h4.433l0.555,0.5L219.22,190.328z M215.896,190.578v2.376
				l-0.831,0.75l-0.277-0.25v-3.251L215.896,190.578z M214.787,197.455v-3.251l0.277-0.25l0.831,0.75v2.376L214.787,197.455z
				 M219.761,197.831l-0.555,0.5h-4.419v-0.625l1.108-0.375h3.311L219.761,197.831z M219.497,192.954v-2.626l0.416-0.375
				l0.692,0.625v2.876l-0.277,0.25L219.497,192.954z M220.328,193.954l0.277,0.25v2.876l-0.692,0.625l-0.416-0.375v-2.626
				L220.328,193.954z"/>
			<path fill="#316865" d="M221.99,193.829l-0.277-0.25v-3.501c0.093-0.333,0.323-0.542,0.693-0.625l0.415,1v2.626L221.99,193.829z
				 M221.713,197.455v-3.251l0.277-0.25l0.831,0.75v2.376L221.713,197.455z M226.562,198.331h-4.155
				c-0.37-0.083-0.601-0.292-0.693-0.625l1.108-0.375h3.324L226.562,198.331z M226.423,192.954v-2.626l0.416-1
				c0.369,0.083,0.6,0.292,0.692,0.625v3.501l-0.277,0.25L226.423,192.954z M227.254,193.954l0.277,0.25v3.501
				c-0.093,0.333-0.323,0.542-0.692,0.625l-0.416-1v-2.626L227.254,193.954z"/>
			<path fill="#316865" d="M229.747,190.578v2.376l-0.831,0.75l-0.277-0.25v-3.251L229.747,190.578z M228.639,197.455v-3.251
				l0.277-0.25l0.831,0.75v2.376L228.639,197.455z M233.902,198.331h-4.57c-0.37-0.083-0.601-0.292-0.693-0.625l1.108-0.375h3.74
				L233.902,198.331z M233.487,190.328h-3.727l-1.107-0.375c0.092-0.333,0.322-0.542,0.692-0.625h4.557L233.487,190.328z"/>
			<path fill="#316865" d="M236.687,190.328l-1.107-0.375c0.092-0.333,0.322-0.542,0.692-0.625h4.419
				c0.369,0.083,0.6,0.292,0.692,0.625l-1.108,0.375H236.687z M237.92,193.204v-2.626h1.107v2.626l-0.554,0.5L237.92,193.204z
				 M238.474,193.954l0.554,0.5v3.251c-0.092,0.333-0.323,0.542-0.692,0.625l-0.415-1v-2.876L238.474,193.954z"/>
		</g>
	</g>
</g>
</svg>
