<?xml version="1.0" encoding="utf-8"?>
<!-- Generator: Adobe Illustrator 16.0.0, SVG Export Plug-In . SVG Version: 6.00 Build 0)  -->
<!DOCTYPE svg PUBLIC "-//W3C//DTD SVG 1.1//EN" "http://www.w3.org/Graphics/SVG/1.1/DTD/svg11.dtd">
<svg version="1.1" id="Layer_1" xmlns="http://www.w3.org/2000/svg" xmlns:xlink="http://www.w3.org/1999/xlink" x="0px" y="0px"
	 width="121.729px" height="35.85px" viewBox="0 0 121.729 35.85" enable-background="new 0 0 121.729 35.85" xml:space="preserve">
<path fill="#F7F8F8" d="M17.499,35C27.165,35,35,27.165,35,17.5S27.165,0,17.499,0S0,7.835,0,17.5S7.833,35,17.499,35"/>
<path fill="#C7C9CB" d="M13.278,14.536h1.811v-1.759c0-0.776,0.02-1.972,0.583-2.712c0.593-0.783,1.407-1.318,2.809-1.318
	c2.281,0,3.242,0.327,3.242,0.327l-0.451,2.68c0,0-0.754-0.218-1.457-0.218c-0.705,0-1.334,0.252-1.334,0.956v2.043h2.886
	l-0.202,2.618H18.48v9.096h-3.392v-9.096h-1.811V14.536z"/>
<path fill="#F7F8F8" d="M62.002,35c9.665,0,17.501-7.836,17.501-17.5S71.667,0,62.002,0S44.503,7.836,44.503,17.5
	S52.337,35,62.002,35"/>
<path fill="#C7C9CB" d="M70.781,12.915c-0.644,0.286-1.338,0.479-2.063,0.565c0.744-0.444,1.312-1.149,1.58-1.989
	c-0.696,0.412-1.466,0.711-2.286,0.872c-0.654-0.699-1.589-1.135-2.624-1.135c-1.983,0-3.595,1.61-3.595,3.596
	c0,0.282,0.029,0.556,0.093,0.819c-2.989-0.149-5.639-1.58-7.411-3.759c-0.312,0.534-0.488,1.15-0.488,1.81
	c0,1.247,0.636,2.347,1.602,2.992c-0.591-0.017-1.146-0.182-1.63-0.449v0.045c0,1.744,1.239,3.198,2.886,3.526
	c-0.301,0.084-0.619,0.127-0.947,0.127c-0.231,0-0.457-0.021-0.677-0.063c0.457,1.429,1.785,2.469,3.359,2.496
	c-1.229,0.965-2.78,1.538-4.466,1.538c-0.291,0-0.577-0.016-0.859-0.049c1.592,1.021,3.482,1.615,5.514,1.615
	C65.382,25.473,69,19.993,69,15.241c0-0.157-0.004-0.313-0.012-0.466C69.691,14.269,70.301,13.636,70.781,12.915"/>
<path fill="#F7F8F8" d="M103.694,35c9.666,0,17.501-7.835,17.501-17.5c0-9.664-7.835-17.5-17.501-17.5
	c-9.665,0-17.499,7.834-17.499,17.5S94.029,35,103.694,35"/>
<path fill="#C7C9CB" d="M109.265,8.42H98.125c-1.935,0-3.51,1.575-3.51,3.51v3.707v7.433c0,1.936,1.575,3.508,3.51,3.508h11.141
	c1.936,0,3.51-1.573,3.51-3.508v-7.433V11.93C112.775,9.994,111.2,8.42,109.265,8.42z M110.272,10.513l0.401-0.001v0.4v2.679
	l-3.068,0.01l-0.012-3.079L110.272,10.513z M101.104,15.636c0.582-0.805,1.524-1.332,2.591-1.332s2.009,0.527,2.591,1.332
	c0.378,0.525,0.604,1.169,0.604,1.864c0,1.764-1.434,3.195-3.196,3.195s-3.196-1.434-3.196-3.195
	C100.5,16.805,100.726,16.161,101.104,15.636z M111.005,23.07c0,0.961-0.778,1.74-1.742,1.74H98.125c-0.962,0-1.74-0.779-1.74-1.74
	v-7.433h2.709c-0.234,0.575-0.365,1.205-0.365,1.864c0,2.737,2.228,4.965,4.965,4.965c2.736,0,4.965-2.228,4.965-4.965
	c0-0.659-0.133-1.289-0.363-1.864h2.707v7.433H111.005z"/>
</svg>
